<svg id="Capa_1" enable-background="new 0 0 512 512" height="512" viewBox="0 0 512 512" width="512" xmlns="http://www.w3.org/2000/svg"><g><g><path d="m7.5 7.5h497v497h-497z" fill="#aca8b2"/><g><path d="m165.85 504.431h-87.154c-14.058 0-25.454-11.396-25.454-25.454v-173.922c0-14.058 11.396-25.454 25.454-25.454h87.154c14.058 0 25.454 11.396 25.454 25.454v173.923c0 14.057-11.396 25.453-25.454 25.453z" fill="#6bbef6"/><path d="m98.766 504.426h-20.067c-14.064 0-25.457-11.393-25.457-25.449v-173.922c0-14.064 11.393-25.457 25.457-25.457h20.067c-14.065 0-25.458 11.393-25.458 25.457v173.922c0 14.056 11.393 25.449 25.458 25.449z" fill="#5ea5ec"/><path d="m191.307 342.527-.008 124.383c-28.137 10.379-58.028 14.201-87.452 11.466l-.008-.008c-17.17-1.585-34.179-5.407-50.593-11.457v-124.384c16.663-8.07 34.381-13.059 52.355-14.957 5.544-.595 11.104-.885 16.671-.885 23.615 0 47.23 5.286 69.027 15.843h.008z" fill="#f6f9f9"/><path d="m103.839 478.368c-17.17-1.585-34.179-5.407-50.593-11.457v-124.384c16.663-8.07 34.381-13.059 52.355-14.957-19.182 2.382-27.662 141.062-1.762 150.798z" fill="#e7ecf6"/><path d="m142.898 445.271h-41.251c-12.252 0-22.185-9.932-22.185-22.185v-41.251c0-12.252 9.932-22.185 22.185-22.185h41.251c12.252 0 22.185 9.932 22.185 22.185v41.251c0 12.252-9.933 22.185-22.185 22.185z" fill="#6bbef6"/><path d="m118.613 445.266h-16.96c-12.25 0-22.19-9.93-22.19-22.18v-41.25c0-12.25 9.94-22.19 22.19-22.19h16.96c-12.25 0-22.19 9.94-22.19 22.19v41.25c0 12.25 9.94 22.18 22.19 22.18z" fill="#5ea5ec"/></g><g><path d="m432.154 232.403h-87.154c-14.058 0-25.454-11.396-25.454-25.454v-173.923c0-14.058 11.396-25.454 25.454-25.454h87.154c14.058 0 25.454 11.396 25.454 25.454v173.923c0 14.058-11.396 25.454-25.454 25.454z" fill="#dd636e"/><path d="m365.07 232.398h-20.067c-14.064 0-25.457-11.393-25.457-25.449v-173.923c0-14.064 11.393-25.457 25.457-25.457h20.067c-14.065 0-25.458 11.393-25.458 25.457v173.922c.001 14.057 11.394 25.45 25.458 25.45z" fill="#da4a54"/><path d="m457.611 70.499-.008 124.383c-28.137 10.379-58.028 14.201-87.452 11.466l-.008-.008c-17.17-1.585-34.179-5.407-50.593-11.457v-124.384c16.663-8.07 34.38-13.059 52.355-14.957 5.544-.595 11.104-.885 16.671-.885 23.615 0 47.23 5.286 69.027 15.843h.008z" fill="#f6f9f9"/><path d="m370.143 206.34c-17.17-1.585-34.179-5.407-50.593-11.457v-124.384c16.663-8.07 34.38-13.059 52.355-14.957-19.181 2.381-27.662 141.062-1.762 150.798z" fill="#e7ecf6"/><path d="m409.202 173.242h-41.251c-12.252 0-22.185-9.932-22.185-22.185v-41.251c0-12.252 9.932-22.185 22.185-22.185h41.251c12.252 0 22.185 9.932 22.185 22.185v41.251c0 12.253-9.932 22.185-22.185 22.185z" fill="#dd636e"/><path d="m384.917 173.237h-16.96c-12.25 0-22.19-9.93-22.19-22.18v-41.25c0-12.25 9.94-22.19 22.19-22.19h16.96c-12.25 0-22.19 9.94-22.19 22.19v41.25c0 12.25 9.94 22.18 22.19 22.18z" fill="#da4a54"/></g><g><path d="m394.619 299.454h-39.699c-2.905 0-5.803.568-8.418 1.833-6.773 3.277-10.772 9.996-10.75 17.118v129.626c0 7.666 6.215 13.881 13.881 13.881h10.022c7.666 0 13.881-6.215 13.881-13.881v-29.69c7.804-.039 16.196-.075 21.084-.075 33.194 0 60.199-26.649 60.199-59.406s-27.006-59.406-60.2-59.406zm0 81.03c-4.873 0-13.155.035-20.909.073-.04-8.042-.097-34.914-.119-43.32h21.028c12.151 0 22.416 9.902 22.416 21.623s-10.265 21.624-22.416 21.624z" fill="#f6f9f9"/></g><g><path d="m134.924 39.76h-39.699c-2.905 0-5.803.568-8.418 1.833-6.773 3.277-10.772 9.996-10.75 17.118v129.626c0 7.666 6.215 13.881 13.881 13.881h10.022c7.666 0 13.881-6.215 13.881-13.881v-29.69c7.804-.039 16.196-.075 21.084-.075 33.194 0 60.199-26.649 60.199-59.406s-27.005-59.406-60.2-59.406zm0 81.029c-4.873 0-13.155.035-20.909.073-.04-8.042-.097-34.914-.119-43.32h21.028c12.151 0 22.416 9.902 22.416 21.623s-10.265 21.624-22.416 21.624z" fill="#f6f9f9"/></g></g><g><path d="m165.85 272.101h-87.155c-18.171 0-32.954 14.783-32.954 32.954v173.923c0 18.171 14.783 32.954 32.954 32.954h87.154c18.171 0 32.954-14.783 32.954-32.954v-173.923c.001-18.171-14.782-32.954-32.953-32.954zm-87.155 15h87.154c9.9 0 17.954 8.054 17.954 17.954v25.993c-19.51-7.776-40.554-11.864-61.531-11.864s-42.021 4.09-61.531 11.866v-25.996c0-9.899 8.054-17.953 17.954-17.953zm8.268 135.985v-41.25c0-8.097 6.588-14.685 14.685-14.685h41.251c8.097 0 14.685 6.587 14.685 14.685v41.25c0 8.097-6.588 14.685-14.685 14.685h-41.251c-8.097 0-14.685-6.588-14.685-14.685zm74.281-64.561c-5.054-3.986-11.424-6.374-18.346-6.374h-41.251c-6.922 0-13.292 2.388-18.346 6.374l-16.15-13.916c35.569-14.027 74.678-14.029 110.247 0zm-87.026 11.973c-1.45 3.495-2.255 7.324-2.255 11.338v13.126h-11.222v-36.076zm-13.477 39.464h11.222v13.124c0 4.789 1.147 9.312 3.169 13.322l-14.391 13.333zm24.298 37.716c4.743 3.213 10.46 5.093 16.608 5.093h41.251c6.149 0 11.868-1.88 16.612-5.095l17.399 16.12c-35.63 10.568-73.639 10.566-109.267 0zm84.377-11.274c2.021-4.008 3.167-8.531 3.167-13.318v-13.124h11.221v39.773zm14.388-41.442h-11.221v-13.126c0-4.014-.805-7.842-2.255-11.338l13.476-11.608zm-17.954 101.97h-87.155c-9.9 0-17.954-8.054-17.954-17.954v-1.614c20.025 6.231 40.776 9.357 61.535 9.356 20.752-.001 41.507-3.126 61.527-9.354v1.612c.001 9.899-8.053 17.954-17.953 17.954z"/><path d="m345 239.9h87.15c18.174 0 32.96-14.781 32.96-32.95v-173.92c0-18.174-14.786-32.96-32.96-32.96h-10.56c-4.143 0-7.5 3.358-7.5 7.5s3.357 7.5 7.5 7.5h10.561c9.903 0 17.96 8.057 17.96 17.96v25.99c-19.51-7.776-40.556-11.865-61.533-11.864-20.975.001-42.019 4.09-61.527 11.865v-25.991c0-9.903 8.053-17.96 17.95-17.96h46.59c4.143 0 7.5-3.358 7.5-7.5s-3.357-7.5-7.5-7.5h-46.591c-18.169 0-32.95 14.786-32.95 32.96v173.92c0 18.169 14.781 32.95 32.95 32.95zm87.15-15h-87.15c-9.897 0-17.95-8.052-17.95-17.95v-1.614c20.023 6.23 40.773 9.355 61.53 9.355 20.753 0 41.509-3.126 61.53-9.355v1.614c0 9.898-8.056 17.95-17.96 17.95zm-105.1-86.966h11.217v13.124c0 4.789 1.147 9.312 3.17 13.322l-14.386 13.329v-39.775zm123.06 39.774-14.391-13.333c2.021-4.008 3.167-8.53 3.167-13.317v-13.124h11.224zm-98.767-2.059c4.743 3.214 10.46 5.093 16.609 5.093h41.25c6.15 0 11.869-1.88 16.612-5.096l17.399 16.12c-35.629 10.567-73.636 10.566-109.267 0zm72.544-65.842v41.25c0 8.097-6.588 14.685-14.685 14.685h-41.25c-8.098 0-14.686-6.587-14.686-14.685v-41.25c0-8.097 6.588-14.685 14.686-14.685h41.25c8.097 0 14.685 6.588 14.685 14.685zm26.223 13.127h-11.224v-13.126c0-4.014-.805-7.842-2.255-11.338l13.479-11.611zm-6.402-50.357-16.16 13.92c-5.054-3.986-11.425-6.374-18.346-6.374h-41.25c-6.922 0-13.293 2.388-18.347 6.374l-16.149-13.915c35.59-14.035 74.721-14.031 110.252-.005zm-103.186 25.892c-1.45 3.496-2.255 7.324-2.255 11.338v13.126h-11.217v-36.072z"/><path d="m188.92 256c0-4.142-3.357-7.5-7.5-7.5h-173.92c-4.143 0-7.5 3.358-7.5 7.5s3.357 7.5 7.5 7.5h173.92c4.142 0 7.5-3.358 7.5-7.5z"/><path d="m504.5 248.5h-241v-241c0-4.142-3.357-7.5-7.5-7.5s-7.5 3.358-7.5 7.5v241h-37.08c-4.143 0-7.5 3.358-7.5 7.5s3.357 7.5 7.5 7.5h37.08v241c0 4.142 3.357 7.5 7.5 7.5s7.5-3.358 7.5-7.5v-241h241c4.143 0 7.5-3.358 7.5-7.5s-3.357-7.5-7.5-7.5z"/><path d="m462.318 358.86c0-36.892-30.37-66.906-67.699-66.906h-39.699c-4.213 0-8.145.869-11.685 2.583-9.274 4.488-15.016 13.643-14.983 23.869v129.625c0 11.789 9.592 21.38 21.381 21.38h10.022c11.789 0 21.38-9.591 21.38-21.38v-22.226c5.292-.023 10.253-.04 13.584-.04 37.329.002 67.699-30.013 67.699-66.905zm-67.699 51.907c-4.896 0-13.304.036-21.121.075-4.128.021-7.463 3.373-7.463 7.5v29.69c0 3.518-2.862 6.38-6.38 6.38h-10.022c-3.519 0-6.381-2.862-6.381-6.38v-129.649c-.014-4.428 2.483-8.392 6.518-10.344 1.466-.709 3.247-1.084 5.15-1.084h39.699c29.059 0 52.699 23.285 52.699 51.906s-23.64 51.906-52.699 51.906z"/><path d="m394.619 329.737h-21.027c-1.992 0-3.903.793-5.311 2.204-1.407 1.411-2.194 3.324-2.189 5.316l.023 9.472c.027 11.476.066 27.88.096 33.865.021 4.13 3.375 7.463 7.499 7.463h.038c7.739-.039 16.007-.073 20.871-.073 16.216 0 29.916-13.337 29.916-29.124 0-15.786-13.7-29.123-29.916-29.123zm0 43.247c-3.315 0-8.206.016-13.437.039-.023-7.612-.049-18.206-.067-26.329l-.005-1.957h13.509c7.946 0 14.916 6.6 14.916 14.123 0 7.524-6.97 14.124-14.916 14.124z"/><path d="m134.925 32.26h-39.699c-4.213 0-8.145.869-11.685 2.583-9.274 4.488-15.016 13.643-14.983 23.869v129.625c0 11.79 9.592 21.381 21.381 21.381h10.021c11.789 0 21.381-9.591 21.381-21.381v-22.226c5.291-.023 10.253-.04 13.584-.04 37.329 0 67.699-30.014 67.699-66.906s-30.37-66.905-67.699-66.905zm0 118.812c-4.897 0-13.304.036-21.121.075-4.128.021-7.463 3.373-7.463 7.5v29.69c0 3.519-2.862 6.381-6.381 6.381h-10.022c-3.519 0-6.381-2.862-6.381-6.381v-129.649c-.014-4.428 2.483-8.392 6.517-10.344 1.467-.709 3.248-1.084 5.151-1.084h39.699c29.059 0 52.699 23.285 52.699 51.906s-23.64 51.906-52.698 51.906z"/><path d="m134.925 70.043h-21.028c-1.992 0-3.903.793-5.311 2.204-1.407 1.411-2.194 3.324-2.189 5.316l.023 9.474c.027 11.475.066 27.879.096 33.863.021 4.13 3.374 7.463 7.499 7.463h.038c7.74-.039 16.008-.073 20.872-.073 16.216 0 29.916-13.337 29.916-29.123s-13.7-29.124-29.916-29.124zm0 43.246c-3.315 0-8.206.016-13.438.039-.023-7.611-.049-18.205-.067-26.327l-.005-1.958h13.51c7.946 0 14.916 6.6 14.916 14.123s-6.97 14.123-14.916 14.123z"/><path d="m464.755 469.7c-4.143 0-7.5 3.358-7.5 7.5v.5c0 4.142 3.357 7.5 7.5 7.5s7.5-3.358 7.5-7.5v-.5c0-4.142-3.358-7.5-7.5-7.5z"/><path d="m442.449 459.115c-4.143 0-7.5 3.358-7.5 7.5v.5c0 4.142 3.357 7.5 7.5 7.5s7.5-3.358 7.5-7.5v-.5c0-4.142-3.357-7.5-7.5-7.5z"/><path d="m463.966 462.181c4.143 0 7.5-3.358 7.5-7.5v-.5c0-4.142-3.357-7.5-7.5-7.5s-7.5 3.358-7.5 7.5v.5c0 4.142 3.357 7.5 7.5 7.5z"/><path d="m50.101 91.94c4.143 0 7.5-3.358 7.5-7.5v-.5c0-4.142-3.357-7.5-7.5-7.5s-7.5 3.358-7.5 7.5v.5c0 4.143 3.357 7.5 7.5 7.5z"/><path d="m29.312 105.26c4.143 0 7.5-3.358 7.5-7.5v-.5c0-4.142-3.357-7.5-7.5-7.5s-7.5 3.358-7.5 7.5v.5c0 4.142 3.357 7.5 7.5 7.5z"/><path d="m30.154 80.424c4.143 0 7.5-3.358 7.5-7.5v-.5c0-4.142-3.357-7.5-7.5-7.5s-7.5 3.358-7.5 7.5v.5c0 4.142 3.358 7.5 7.5 7.5z"/></g></g></svg>