<svg id="Capa_1" enable-background="new 0 0 512 512" height="512" viewBox="0 0 512 512" width="512" xmlns="http://www.w3.org/2000/svg"><g><g><path clip-rule="evenodd" d="m64.188 136.549h68.534v37.233h-68.534z" fill="#c8c5c9" fill-rule="evenodd"/></g><g><path clip-rule="evenodd" d="m64.188 33.758h68.534v37.233h-68.534z" fill="#c8c5c9" fill-rule="evenodd"/></g><g><path clip-rule="evenodd" d="m178.074 500.407c0 6.366 5.227 11.593 11.593 11.593h35.831c6.366 0 11.564-5.227 11.564-11.593v-38.284h-58.988z" fill="#6f6571" fill-rule="evenodd"/></g><g><path clip-rule="evenodd" d="m427.869 500.407c0 6.366 5.227 11.593 11.593 11.593h35.831c6.366 0 11.593-5.227 11.593-11.593v-38.284h-59.017z" fill="#6f6571" fill-rule="evenodd"/></g><g><path clip-rule="evenodd" d="m37.408 19.741v448.398l21.312 14.178 18.169-14.178v-294.357-37.233-65.559-37.232-14.017c0-10.864-8.877-19.741-19.741-19.741s-19.74 8.877-19.74 19.741z" fill="#eceaec" fill-rule="evenodd"/></g><g><path clip-rule="evenodd" d="m126.708 191.566h162.218c3.679 0 6.687-3.008 6.687-6.687v-162.218c0-3.679-3.008-6.687-6.687-6.687h-162.218c-3.679 0-6.687 3.008-6.687 6.687v11.097 37.232 65.559 37.233 11.097c0 3.679 3.007 6.687 6.687 6.687z" fill="#9fd4fe" fill-rule="evenodd"/></g><g><path clip-rule="evenodd" d="m295.613 184.878v-162.217c0-3.679-3.008-6.687-6.687-6.687h-31.859c3.65 0 6.658 3.008 6.658 6.687v162.218c0 3.679-3.008 6.687-6.658 6.687h31.859c3.679 0 6.687-3.008 6.687-6.688z" fill="#72bffc" fill-rule="evenodd"/></g><g><path clip-rule="evenodd" d="m152.96 317.835c0 13.141 10.659 23.887 23.712 23.887h11.768l28.209-23.887-5.548-23.887h-34.429c-13.053 0-23.712 10.746-23.712 23.887z" fill="#f76672" fill-rule="evenodd"/></g><g><path clip-rule="evenodd" d="m453.859 293.948-1.577 22.106 24.208 25.669h11.798c13.024 0 23.712-10.746 23.712-23.887s-10.688-23.887-23.712-23.887h-34.429z" fill="#f76672" fill-rule="evenodd"/></g><g><path clip-rule="evenodd" d="m188.441 341.723h288.049l-22.632-47.775-12.206-25.756c-12.528-26.428-14.981-26.107-44.884-26.019h-128.605c-29.874-.088-32.327-.409-44.854 26.019l-12.206 25.756z" fill="#9fd4fe" fill-rule="evenodd"/></g><g><path clip-rule="evenodd" d="m441.652 268.192c-12.528-26.428-14.981-26.107-44.884-26.019h-23.673c21.405.175 24.588 2.599 35.714 26.019l12.206 25.756 20.763 43.774 1.869 4.001h32.843l-22.632-47.775z" fill="#72bffc" fill-rule="evenodd"/></g><path d="m490.682 371.626-14.192-29.903-.735-1.406s-35.322-74.509-35.58-75.045c-5.604-11.713-10.065-19.769-17.74-24.065-7.397-4.152-15.855-4.131-31.225-4.08h-118.511c-15.36-.051-23.818-.072-31.215 4.08-7.665 4.296-12.125 12.352-17.729 24.065-.258.536-35.61 76.791-35.61 76.791l.136-.003-14.003 29.566c-5.052 10.63-4.526 10.016-4.526 21.785v67.311c0 8.527.292 11.71 8.323 11.71h58.988 190.806 59.017c8.031 0 8.293-3.183 8.293-11.71v-67.312c.001-11.768.555-11.155-4.497-21.784zm-285.324-32.263s34.067-71.794 35.272-74.091c3.121-5.975 5.542-9.364 8.252-10.889 3.935-2.205 11.394-2.184 23.766-2.143h118.605c12.383-.041 19.852-.062 23.797 2.143 2.709 1.525 5.12 4.914 8.252 10.889 1.205 2.297 35.201 73.942 35.201 73.942z" fill="#ff8086"/><g><path d="m371.655 438.691h-78.349c-4.268 0-7.726-3.459-7.726-7.726s3.459-7.726 7.726-7.726h78.349c4.268 0 7.726 3.459 7.726 7.726 0 4.266-3.458 7.726-7.726 7.726zm0-34.926h-78.349c-4.268 0-7.726-3.459-7.726-7.726s3.459-7.726 7.726-7.726h78.349c4.268 0 7.726 3.459 7.726 7.726s-3.458 7.726-7.726 7.726z" fill="#6f6571"/></g><g><path clip-rule="evenodd" d="m405.004 406.23c0 13.667 11.068 24.734 24.705 24.734 13.667 0 24.734-11.068 24.734-24.734s-11.068-24.734-24.734-24.734c-13.638 0-24.705 11.068-24.705 24.734z" fill="#9fd4fe" fill-rule="evenodd"/></g><g><path clip-rule="evenodd" d="m210.489 406.23c0 13.667 11.097 24.734 24.734 24.734 13.667 0 24.734-11.068 24.734-24.734s-11.068-24.734-24.734-24.734c-13.638 0-24.734 11.068-24.734 24.734z" fill="#9fd4fe" fill-rule="evenodd"/></g><g><path clip-rule="evenodd" d="m259.957 406.23c0-13.667-11.068-24.734-24.734-24.734-3.271 0-6.395.642-9.257 1.781 9.082 3.679 15.477 12.557 15.477 22.953 0 10.367-6.395 19.273-15.477 22.924 2.862 1.168 5.986 1.811 9.257 1.811 13.666-.001 24.734-11.068 24.734-24.735z" fill="#72bffc" fill-rule="evenodd"/></g><g><path clip-rule="evenodd" d="m454.443 406.23c0-13.667-11.068-24.734-24.734-24.734-3.271 0-6.395.642-9.257 1.781 9.082 3.679 15.477 12.557 15.477 22.953 0 10.367-6.395 19.273-15.477 22.924 2.862 1.168 5.986 1.811 9.257 1.811 13.666-.001 24.734-11.068 24.734-24.735z" fill="#72bffc" fill-rule="evenodd"/></g><g><path d="m429.737 438.691c-17.898 0-32.46-14.562-32.46-32.461s14.561-32.46 32.46-32.46c17.883 0 32.432 14.561 32.432 32.46s-14.548 32.461-32.432 32.461zm0-49.469c-9.377 0-17.007 7.63-17.007 17.008s7.63 17.008 17.007 17.008c9.362 0 16.979-7.63 16.979-17.008s-7.616-17.008-16.979-17.008z" fill="#eceaec"/></g><g><path d="m235.223 438.691c-17.883 0-32.432-14.562-32.432-32.461s14.549-32.46 32.432-32.46c17.899 0 32.46 14.561 32.46 32.46s-14.561 32.461-32.46 32.461zm0-49.469c-9.362 0-16.979 7.63-16.979 17.008s7.617 17.008 16.979 17.008c9.378 0 17.008-7.63 17.008-17.008-.001-9.378-7.63-17.008-17.008-17.008z" fill="#eceaec"/></g><g><path clip-rule="evenodd" d="m178.074 472.431h58.988v19.77h-58.988z" fill="#5d5360" fill-rule="evenodd"/></g><g><path clip-rule="evenodd" d="m427.869 472.431h59.017v19.77h-59.017z" fill="#5d5360" fill-rule="evenodd"/></g><g><path clip-rule="evenodd" d="m4.468 511.912h105.361c2.482 0 4.497-2.015 4.497-4.468v-17.434c0-12.031-9.87-21.872-21.902-21.872h-70.522c-12.061 0-21.902 9.842-21.902 21.873v17.434c0 2.452 2.015 4.467 4.468 4.467z" fill="#6f6571" fill-rule="evenodd"/></g><g><path clip-rule="evenodd" d="m114.326 490.011c0-12.031-9.87-21.872-21.902-21.872h-15.535-15.681c12.031 0 21.872 9.841 21.872 21.872v17.434c0 2.453-1.986 4.439-4.41 4.468h31.159c2.482 0 4.497-2.015 4.497-4.468z" fill="#5d5360" fill-rule="evenodd"/></g><path d="m209.96 39.105h-31.708c-4.205 0-7.726 3.521-7.726 7.726v113.877c0 4.267 3.459 7.726 7.726 7.726s7.726-3.459 7.726-7.726v-41.78c7.425-.042 18.483-.098 23.982-.098 22.327 0 40.492-17.882 40.492-39.863s-18.165-39.862-40.492-39.862zm0 64.272c-5.465 0-16.366.055-23.805.097-.042-7.627-.13-40.991-.153-48.917h23.958c13.572 0 25.039 11.179 25.039 24.41s-11.467 24.41-25.039 24.41z" fill="#6f6571"/></g></svg>